<svg xmlns="http://www.w3.org/2000/svg" version="1.0" width="714.000000pt" height="360.000000pt" viewBox="0 0 714.000000 360.000000" preserveAspectRatio="xMidYMid meet">

<g transform="translate(0.000000,360.000000) scale(0.100000,-0.100000)" fill="#ff0000" stroke="none">
<path d="M2000 3196 c-204 -43 -365 -168 -460 -356 l-23 -45 -21 30 c-11 17 -54 64 -96 105 -233 234 -612 240 -892 14 -72 -58 -142 -149 -183 -235 -84 -182 -70 -431 37 -644 116 -229 306 -415 629 -615 390 -241 524 -368 625 -586 19 -40 34 -75 34 -78 0 -3 -21 -8 -47 -12 -69 -10 -194 -57 -246 -93 -54 -37 -103 -108 -112 -162 -19 -114 131 -212 302 -196 164 16 273 130 273 285 l0 54 68 -7 c210 -19 346 -48 662 -140 497 -145 748 -189 1075 -189 325 0 561 41 1185 204 387 101 564 130 807 130 252 0 482 -46 870 -174 108 -36 198 -64 200 -63 5 6 -250 108 -381 153 -437 150 -773 176 -1236 98 -132 -22 -222 -41 -695 -150 -318 -73 -636 -102 -898 -84 -273 18 -409 47 -849 179 -144 43 -312 90 -373 104 -123 29 -318 57 -400 57 l-54 0 -45 96 c-119 251 -250 380 -626 618 -305 193 -438 308 -548 475 -72 110 -114 207 -136 313 -29 140 -13 258 49 377 135 257 481 348 744 194 102 -59 213 -189 271 -315 l27 -61 32 100 c111 345 363 543 662 520 133 -11 260 -68 362 -166 56 -53 137 -171 152 -219 6 -21 11 -23 43 -17 21 4 38 8 40 10 2 2 -11 37 -28 78 -39 95 -113 200 -182 261 -61 54 -186 119 -273 141 -84 22 -264 28 -345 11z m-315 -2556 c11 -18 -16 -90 -47 -126 -51 -58 -142 -85 -202 -60 -102 42 -41 138 115 180 63 17 125 20 134 6z" fill="#ff0000"/>
<path d="M2735 2669 c-307 -44 -500 -303 -456 -613 27 -198 99 -325 341 -611 200 -234 267 -355 270 -485 1 -34 2 -34 12 -10 16 39 3 138 -27 213 -36 88 -104 195 -244 386 -189 256 -246 386 -246 566 0 118 17 176 77 265 100 150 281 209 463 152 166 -52 248 -170 264 -377 l6 -80 33 53 c101 156 295 250 460 223 208 -35 343 -168 371 -367 20 -135 -18 -261 -104 -353 -88 -94 -189 -154 -498 -297 -87 -40 -186 -90 -220 -111 -66 -40 -162 -124 -179 -158 -6 -12 4 -6 28 16 88 82 193 137 507 270 246 103 349 162 425 244 234 252 158 653 -152 799 -168 80 -354 74 -521 -18 -58 -32 -66 -34 -71 -18 -72 217 -295 346 -539 311z" fill="#ff0000"/>
<path d="M2245 1647 c-151 -114 -307 -268 -374 -372 -29 -44 -39 -64 -24 -45 108 137 298 302 475 414 66 42 76 52 68 67 -6 10 -13 20 -18 22 -4 3 -61 -36 -127 -86z" fill="#ff0000"/>
</g>
</svg>